<svg preserveAspectRatio="none" width="100%" height="100%" overflow="visible" style="display: block;" viewBox="0 0 22 23" fill="none" xmlns="http://www.w3.org/2000/svg">
<g id="Vector">
<path id="Union" d="M6.36719 0.104492C7.66225 -0.327195 9 0.636838 9 2.00195V3.47656H12.25C14.0448 3.47656 15.4999 4.93176 15.5 6.72656V9.22656C15.5 9.64078 15.1642 9.97656 14.75 9.97656C14.3358 9.97656 14 9.64078 14 9.22656V6.72656C13.9999 5.76018 13.2164 4.97656 12.25 4.97656H9V20.2266C9 20.6998 8.83435 21.1341 8.55957 21.4766H12.25C13.2165 21.4766 14 20.6931 14 19.7266V17.2266C14.0001 16.8125 14.3359 16.4766 14.75 16.4766C15.1641 16.4766 15.4999 16.8125 15.5 17.2266V19.7266C15.5 21.5215 14.0449 22.9766 12.25 22.9766H2.75C1.23122 22.9766 0 21.7453 0 20.2266V3.66895C0 2.80824 0.550744 2.04384 1.36719 1.77148L6.36719 0.104492Z" fill="var(--fill-0, #414858)"/>
<path id="Union_2" d="M17 10.0019C17.0002 9.0667 18.1698 8.64374 18.7686 9.3622L21.4668 12.5995C21.7757 12.9702 21.7755 13.5089 21.4668 13.8798L18.7686 17.1181C18.1699 17.8365 17.0004 17.4134 17 16.4784V14.0009H12C11.5859 14.0009 11.2502 13.6649 11.25 13.2509C11.25 12.8367 11.5858 12.5009 12 12.5009H17V10.0019Z" fill="var(--fill-0, #414858)"/>
</g>
</svg>
