<svg preserveAspectRatio="none" width="100%" height="100%" overflow="visible" style="display: block;" viewBox="0 0 18 19" fill="none" xmlns="http://www.w3.org/2000/svg">
<path id="Vector" d="M3.99984 3.8V0.95C3.99984 0.425334 4.44757 0 4.99986 0H17C17.5523 0 18 0.425334 18 0.95V14.25C18 14.7747 17.5523 15.2 17 15.2H14V18.0491C14 18.5743 13.5501 19 12.9931 19H1.00667C0.450595 19 0 18.5776 0 18.0491L0.00259998 4.75083C0.00269998 4.2257 0.452645 3.8 1.00943 3.8H3.99984ZM5.99987 3.8H14V13.3H16V1.9H5.99987V3.8ZM3.99984 8.55V10.45H9.99991V8.55H3.99984ZM3.99984 12.35V14.25H9.99991V12.35H3.99984Z" fill="var(--fill-0, #8F949C)"/>
</svg>
