<svg preserveAspectRatio="none" width="100%" height="100%" overflow="visible" style="display: block;" viewBox="0 0 19 19" fill="none" xmlns="http://www.w3.org/2000/svg">
<path id="Exclude" d="M18.0498 0C18.5745 0 19 0.425529 19 0.950195V13.2998C19 13.8245 18.5745 14.25 18.0498 14.25H14.25V18.043C14.2499 18.5715 13.8235 18.9999 13.293 19H0.957031C0.428463 19 5.04076e-05 18.5736 0 18.043L0.00292969 5.70703C0.00308372 5.17848 0.429458 4.75 0.959961 4.75H4.75V0.950195C4.75 0.425529 5.17552 0 5.7002 0H18.0498ZM3.99512 6.65039L7.59766 10.2529L1.89844 15.9531L3.24219 17.2969L8.94043 11.5967L12.5449 15.2002V6.65039H3.99512ZM6.64941 4.75H13.293C13.8214 4.75 14.25 5.17643 14.25 5.70703V12.3496H17.0996V1.90039H6.64941V4.75Z" fill="var(--fill-0, #8F949C)"/>
</svg>
