<svg preserveAspectRatio="none" width="100%" height="100%" overflow="visible" style="display: block;" viewBox="0 0 15 21" fill="none" xmlns="http://www.w3.org/2000/svg">
<g id="vector">
<path id="Vector" d="M5 10C2.2375 10 0 7.7625 0 5C0 2.2375 2.2375 0 5 0C7.7625 0 10 2.2375 10 5C10 7.7625 7.7625 10 5 10Z" fill="var(--fill-0, white)"/>
<path id="Exclude" d="M11.0181 11.0527V12.3184C11.6069 12.4935 12.1371 12.8049 12.5718 13.2158L13.6695 12.582L14.775 14.4971L13.6783 15.1299C13.7466 15.4177 13.7828 15.7178 13.7828 16.0264C13.7828 16.335 13.7466 16.6351 13.6783 16.9229L14.775 17.5557L13.6695 19.4707L12.5718 18.8369C12.1371 19.248 11.6069 19.5593 11.0181 19.7344V21H8.80719V19.7344C8.21842 19.5593 7.6882 19.248 7.25348 18.8369L6.15582 19.4707L5.05035 17.5557L6.14703 16.9238C6.07858 16.636 6.04156 16.3352 6.04156 16.0264C6.04157 15.7178 6.07777 15.4176 6.14605 15.1299L5.05035 14.4971L6.15582 12.582L7.25348 13.2158C7.68818 12.8049 8.21845 12.4935 8.80719 12.3184V11.0527H11.0181ZM10.022 14.9209C9.41165 14.9209 8.91656 15.4159 8.91656 16.0264C8.91667 16.6367 9.41172 17.1318 10.022 17.1318C10.6323 17.1318 11.1274 16.6367 11.1275 16.0264C11.1275 15.416 10.6324 14.9209 10.022 14.9209Z" fill="var(--fill-0, white)"/>
</g>
</svg>
